<svg width="139" height="60" viewBox="0 0 139 60" fill="none" xmlns="http://www.w3.org/2000/svg">
<path d="M11.0781 44.7188C9.51562 44.7188 8.09375 44.3438 6.8125 43.5938C5.5625 42.8438 4.48438 41.8125 3.57812 40.5C2.70312 39.1875 2.03125 37.6562 1.5625 35.9062C1.125 34.125 0.9375 32.2344 1 30.2344C1.0625 28.3594 1.29688 26.3281 1.70312 24.1406C2.14062 21.9531 2.75 19.7656 3.53125 17.5781C4.3125 15.3594 5.25 13.2344 6.34375 11.2031C7.46875 9.14062 8.75 7.32812 10.1875 5.76562C11.625 4.20312 13.2188 2.95312 14.9688 2.01562C16.7188 1.04688 18.6406 0.5625 20.7344 0.5625C22.0156 0.5625 23.0938 0.828125 23.9688 1.35938C24.875 1.85937 25.5938 2.53125 26.125 3.375C26.6875 4.21875 27.0781 5.17188 27.2969 6.23438C27.5156 7.29688 27.6094 8.375 27.5781 9.46875C27.5156 10.5 27.3594 11.5 27.1094 12.4688C26.8906 13.4375 26.5625 14.3125 26.125 15.0938C25.7188 15.8438 25.2031 16.4531 24.5781 16.9219C23.9844 17.3594 23.2969 17.5781 22.5156 17.5781C22.1406 17.5469 21.7812 17.4219 21.4375 17.2031C21.125 17.0156 20.7969 16.7344 20.4531 16.3594C20.1406 15.9844 19.8438 15.4375 19.5625 14.7188C20.4062 14.375 21.0625 13.7812 21.5312 12.9375C22.0312 12.0625 22.4062 11.1562 22.6562 10.2188C22.9375 9.15625 23.125 7.96875 23.2188 6.65625C23.2812 5.375 23.0156 4.4375 22.4219 3.84375C21.8281 3.25 21.1562 2.95312 20.4062 2.95312C18.9375 2.95312 17.3906 3.71875 15.7656 5.25C14.1406 6.78125 12.625 8.85938 11.2188 11.4844C9.84375 14.0781 8.67188 17.1094 7.70312 20.5781C6.76562 24.0469 6.21875 27.7188 6.0625 31.5938C6 33.3438 6.10938 34.8281 6.39062 36.0469C6.70312 37.2656 7.125 38.2656 7.65625 39.0469C8.21875 39.8281 8.84375 40.3906 9.53125 40.7344C10.2188 41.0781 10.9062 41.25 11.5938 41.25C12.6875 41.25 13.7188 41.0156 14.6875 40.5469C15.6562 40.0781 16.5312 39.5 17.3125 38.8125C18.125 38.125 18.8125 37.4062 19.375 36.6562C19.9688 35.9375 20.4219 35.2969 20.7344 34.7344C20.9531 34.3281 21.1875 34.0781 21.4375 33.9844C21.6875 33.8906 21.9062 33.9219 22.0938 34.0781C22.2812 34.2031 22.4062 34.4219 22.4688 34.7344C22.5312 35.0156 22.4688 35.3594 22.2812 35.7656C21.75 36.8281 21.0938 37.8906 20.3125 38.9531C19.5625 40.0156 18.7031 40.9688 17.7344 41.8125C16.7969 42.6875 15.7656 43.3906 14.6406 43.9219C13.5156 44.4531 12.3281 44.7188 11.0781 44.7188ZM51.3906 26.6719C50.9531 27.2969 50.3906 28.0781 49.7031 29.0156C49.0156 29.9219 48.2969 30.8438 47.5469 31.7812C46.8281 32.6875 46.1094 33.5312 45.3906 34.3125C44.7031 35.0625 44.125 35.5938 43.6562 35.9062C43.3438 36.0938 42.9844 36.25 42.5781 36.375C42.1719 36.5 41.75 36.5781 41.3125 36.6094C40.9062 36.6406 40.5156 36.6094 40.1406 36.5156C39.7656 36.4531 39.4375 36.3281 39.1562 36.1406C38.875 35.9219 38.6406 35.6094 38.4531 35.2031C38.2969 34.8594 38.1406 34.4062 37.9844 33.8438C37.8594 33.2812 37.8125 32.5781 37.8438 31.7344C37.0938 32.9844 36.2656 33.9531 35.3594 34.6406C34.4531 35.2969 33.5938 35.7812 32.7812 36.0938C31.8438 36.4375 30.9062 36.6406 29.9688 36.7031C29.5312 36.7031 29.0625 36.5469 28.5625 36.2344C28.0625 35.9531 27.6406 35.5 27.2969 34.875C26.9531 34.2188 26.7344 33.3906 26.6406 32.3906C26.5469 31.3594 26.6719 30.1406 27.0156 28.7344C27.4531 26.8281 28.1406 25.0938 29.0781 23.5312C30.0469 21.9688 31.0938 20.6406 32.2188 19.5469C33.3438 18.4219 34.4531 17.5781 35.5469 17.0156C36.6406 16.4531 37.5469 16.2031 38.2656 16.2656C39.1094 16.4219 39.7969 16.6719 40.3281 17.0156C40.7656 17.3281 41.0469 17.7969 41.1719 18.4219C41.3281 19.0156 41.0781 19.8125 40.4219 20.8125C40.8594 20.7188 41.2188 20.6562 41.5 20.625C41.8125 20.5938 42.0469 20.5781 42.2031 20.5781C42.3906 20.5781 42.5156 20.5938 42.5781 20.625C42.6094 20.6875 42.625 20.8281 42.625 21.0469C42.625 21.2344 42.5781 21.5938 42.4844 22.125C42.3906 22.6562 42.25 23.375 42.0625 24.2812C41.875 25.1875 41.625 26.3594 41.3125 27.7969C41.25 28.0781 41.1875 28.3438 41.125 28.5938C41.0938 28.8125 41.0469 29.0469 40.9844 29.2969C40.9531 29.5156 40.9062 29.7812 40.8438 30.0938C40.7812 30.4062 40.7031 30.7969 40.6094 31.2656C40.5781 31.5469 40.5625 31.8594 40.5625 32.2031C40.5938 32.5156 40.6562 32.8125 40.75 33.0938C40.8438 33.375 40.9844 33.6094 41.1719 33.7969C41.3906 33.9531 41.6875 34.0312 42.0625 34.0312C42.375 34.0312 42.7812 33.8438 43.2812 33.4688C43.7812 33.0625 44.3125 32.5625 44.875 31.9688C45.4375 31.3438 46.0156 30.6719 46.6094 29.9531C47.2344 29.2031 47.8125 28.4844 48.3438 27.7969C48.875 27.1094 49.3438 26.5 49.75 25.9688C50.1875 25.4375 50.5 25.0469 50.6875 24.7969C50.9375 24.5156 51.1875 24.3594 51.4375 24.3281C51.6875 24.2656 51.875 24.3281 52 24.5156C52.125 24.7031 52.1406 24.9844 52.0469 25.3594C51.9844 25.7344 51.7656 26.1719 51.3906 26.6719ZM37.6562 28.7344C37.8125 28.1094 38 27.375 38.2188 26.5312C38.4375 25.6875 38.625 24.875 38.7812 24.0938C38.9375 23.3125 39.0469 22.6719 39.1094 22.1719C39.2031 21.6406 39.1875 21.3906 39.0625 21.4219C38.9062 21.4531 38.7344 21.5 38.5469 21.5625C38.3906 21.625 38.1875 21.6719 37.9375 21.7031C37.6875 21.7344 37.4375 21.7812 37.1875 21.8438C37.4375 21.3438 37.5781 20.9375 37.6094 20.625C37.6719 20.2812 37.6875 20.0156 37.6562 19.8281C37.625 19.6094 37.5625 19.4375 37.4688 19.3125C37.125 19.0312 36.5156 19.2656 35.6406 20.0156C34.7969 20.7344 33.8125 22.0781 32.6875 24.0469C32.2188 24.8594 31.8438 25.7344 31.5625 26.6719C31.2812 27.5781 31.0781 28.4375 30.9531 29.25C30.8594 30.0625 30.8438 30.7812 30.9062 31.4062C30.9688 32 31.0938 32.3906 31.2812 32.5781C31.625 32.9219 32.0156 33.0938 32.4531 33.0938C32.8906 33.0625 33.3281 32.9375 33.7656 32.7188C34.2344 32.4688 34.6875 32.1562 35.125 31.7812C35.5938 31.4062 36 31.0156 36.3438 30.6094C36.7188 30.2031 37.0156 29.8281 37.2344 29.4844C37.4844 29.1406 37.625 28.8906 37.6562 28.7344ZM65.5469 24.1406C65.6719 23.9531 65.8281 23.8438 66.0156 23.8125C66.2344 23.75 66.4062 23.7656 66.5312 23.8594C66.6562 23.9531 66.7188 24.1094 66.7188 24.3281C66.75 24.5469 66.6719 24.8438 66.4844 25.2188C65.8594 26.4062 65.0312 27.6875 64 29.0625C63 30.4375 61.9375 31.7344 60.8125 32.9531C59.6875 34.1406 58.5938 35.125 57.5312 35.9062C56.4688 36.6875 55.5781 37.0781 54.8594 37.0781C53.8281 37.0781 52.9688 36.875 52.2812 36.4688C51.5938 36.0625 51.0469 35.5625 50.6406 34.9688C50.2656 34.375 50 33.7344 49.8438 33.0469C49.6875 32.3281 49.6406 31.6719 49.7031 31.0781C49.7344 30.5781 49.8438 29.6875 50.0312 28.4062C50.2188 27.0938 50.4688 25.5938 50.7812 23.9062C51.0938 22.1875 51.4375 20.3594 51.8125 18.4219C52.2188 16.4531 52.6406 14.5625 53.0781 12.75C52.5469 12.8125 52.0156 12.875 51.4844 12.9375C50.9531 13 50.4688 13.0312 50.0312 13.0312C49.0312 13.0312 48.0938 12.9219 47.2188 12.7031C46.3125 12.4531 45.6406 12.2188 45.2031 12C44.9531 11.875 44.8438 11.7031 44.875 11.4844C44.9062 11.2344 45 11 45.1562 10.7812C45.3125 10.5312 45.5156 10.3281 45.7656 10.1719C45.9844 9.98438 46.1875 9.89062 46.375 9.89062C46.9688 9.95312 47.6094 10.0156 48.2969 10.0781C48.9844 10.1094 49.7344 10.1094 50.5469 10.0781C51.1406 10.0469 51.7031 10 52.2344 9.9375C52.7969 9.875 53.3438 9.79688 53.875 9.70312C54.2812 8.20312 54.6719 6.90625 55.0469 5.8125C55.4531 4.6875 55.8125 3.90625 56.125 3.46875C56.2188 3.3125 56.4219 3.1875 56.7344 3.09375C57.0781 2.96875 57.4375 2.89062 57.8125 2.85938C58.1875 2.79687 58.5469 2.79687 58.8906 2.85938C59.2344 2.89062 59.4844 3 59.6406 3.1875C59.7969 3.4375 59.8594 4.07812 59.8281 5.10938C59.7969 6.14062 59.625 7.45312 59.3125 9.04688C60.625 9.04688 61.7812 9.125 62.7812 9.28125C63.8125 9.40625 64.6875 9.5625 65.4062 9.75C66.125 9.90625 66.7031 10.0781 67.1406 10.2656C67.5781 10.4219 67.9062 10.5312 68.125 10.5938C68.3438 10.6562 68.4531 10.8125 68.4531 11.0625C68.4844 11.3125 68.4375 11.5781 68.3125 11.8594C68.2188 12.1094 68.0469 12.3281 67.7969 12.5156C67.5469 12.7031 67.2656 12.7656 66.9531 12.7031C66.6406 12.6719 66.2812 12.6094 65.875 12.5156C65.5 12.4219 65.0312 12.3438 64.4688 12.2812C63.9375 12.2188 63.2969 12.1562 62.5469 12.0938C61.7969 12.0312 60.9219 12 59.9219 12C59.7344 12 59.5156 12.0156 59.2656 12.0469C59.0469 12.0469 58.8125 12.0469 58.5625 12.0469C58.4375 12.5469 58.3125 13.0469 58.1875 13.5469C58.0938 14.0156 57.9531 14.5156 57.7656 15.0469C57.3594 16.2969 56.8906 17.6562 56.3594 19.125C55.8906 20.4062 55.3281 21.875 54.6719 23.5312C54.0156 25.1875 53.2812 26.9531 52.4688 28.8281C52.2812 30.1719 52.2969 31.2031 52.5156 31.9219C52.7656 32.6094 53.0625 33.1094 53.4062 33.4219C53.8125 33.7656 54.3125 33.9531 54.9062 33.9844C55.375 34.0469 55.9375 33.8906 56.5938 33.5156C57.2812 33.1094 57.9844 32.5781 58.7031 31.9219C59.4219 31.2656 60.1406 30.5469 60.8594 29.7656C61.6094 28.9844 62.2969 28.2188 62.9219 27.4688C63.5469 26.7188 64.0938 26.0469 64.5625 25.4531C65.0312 24.8281 65.3594 24.3906 65.5469 24.1406ZM86.7812 26.6719C86.3438 27.2969 85.7812 28.0781 85.0938 29.0156C84.4062 29.9219 83.6875 30.8438 82.9375 31.7812C82.2188 32.6875 81.5 33.5312 80.7812 34.3125C80.0938 35.0625 79.5156 35.5938 79.0469 35.9062C78.7344 36.0938 78.375 36.25 77.9688 36.375C77.5625 36.5 77.1406 36.5781 76.7031 36.6094C76.2969 36.6406 75.9062 36.6094 75.5312 36.5156C75.1562 36.4531 74.8281 36.3281 74.5469 36.1406C74.2656 35.9219 74.0312 35.6094 73.8438 35.2031C73.6875 34.8594 73.5312 34.4062 73.375 33.8438C73.25 33.2812 73.2031 32.5781 73.2344 31.7344C72.4844 32.9844 71.6562 33.9531 70.75 34.6406C69.8438 35.2969 68.9844 35.7812 68.1719 36.0938C67.2344 36.4375 66.2969 36.6406 65.3594 36.7031C64.9219 36.7031 64.4531 36.5469 63.9531 36.2344C63.4531 35.9531 63.0312 35.5 62.6875 34.875C62.3438 34.2188 62.125 33.3906 62.0312 32.3906C61.9375 31.3594 62.0625 30.1406 62.4062 28.7344C62.8438 26.8281 63.5312 25.0938 64.4688 23.5312C65.4375 21.9688 66.4844 20.6406 67.6094 19.5469C68.7344 18.4219 69.8438 17.5781 70.9375 17.0156C72.0312 16.4531 72.9375 16.2031 73.6562 16.2656C74.5 16.4219 75.1875 16.6719 75.7188 17.0156C76.1562 17.3281 76.4375 17.7969 76.5625 18.4219C76.7188 19.0156 76.4688 19.8125 75.8125 20.8125C76.25 20.7188 76.6094 20.6562 76.8906 20.625C77.2031 20.5938 77.4375 20.5781 77.5938 20.5781C77.7812 20.5781 77.9062 20.5938 77.9688 20.625C78 20.6875 78.0156 20.8281 78.0156 21.0469C78.0156 21.2344 77.9688 21.5938 77.875 22.125C77.7812 22.6562 77.6406 23.375 77.4531 24.2812C77.2656 25.1875 77.0156 26.3594 76.7031 27.7969C76.6406 28.0781 76.5781 28.3438 76.5156 28.5938C76.4844 28.8125 76.4375 29.0469 76.375 29.2969C76.3438 29.5156 76.2969 29.7812 76.2344 30.0938C76.1719 30.4062 76.0938 30.7969 76 31.2656C75.9688 31.5469 75.9531 31.8594 75.9531 32.2031C75.9844 32.5156 76.0469 32.8125 76.1406 33.0938C76.2344 33.375 76.375 33.6094 76.5625 33.7969C76.7812 33.9531 77.0781 34.0312 77.4531 34.0312C77.7656 34.0312 78.1719 33.8438 78.6719 33.4688C79.1719 33.0625 79.7031 32.5625 80.2656 31.9688C80.8281 31.3438 81.4062 30.6719 82 29.9531C82.625 29.2031 83.2031 28.4844 83.7344 27.7969C84.2656 27.1094 84.7344 26.5 85.1406 25.9688C85.5781 25.4375 85.8906 25.0469 86.0781 24.7969C86.3281 24.5156 86.5781 24.3594 86.8281 24.3281C87.0781 24.2656 87.2656 24.3281 87.3906 24.5156C87.5156 24.7031 87.5312 24.9844 87.4375 25.3594C87.375 25.7344 87.1562 26.1719 86.7812 26.6719ZM73.0469 28.7344C73.2031 28.1094 73.3906 27.375 73.6094 26.5312C73.8281 25.6875 74.0156 24.875 74.1719 24.0938C74.3281 23.3125 74.4375 22.6719 74.5 22.1719C74.5938 21.6406 74.5781 21.3906 74.4531 21.4219C74.2969 21.4531 74.125 21.5 73.9375 21.5625C73.7812 21.625 73.5781 21.6719 73.3281 21.7031C73.0781 21.7344 72.8281 21.7812 72.5781 21.8438C72.8281 21.3438 72.9688 20.9375 73 20.625C73.0625 20.2812 73.0781 20.0156 73.0469 19.8281C73.0156 19.6094 72.9531 19.4375 72.8594 19.3125C72.5156 19.0312 71.9062 19.2656 71.0312 20.0156C70.1875 20.7344 69.2031 22.0781 68.0781 24.0469C67.6094 24.8594 67.2344 25.7344 66.9531 26.6719C66.6719 27.5781 66.4688 28.4375 66.3438 29.25C66.25 30.0625 66.2344 30.7812 66.2969 31.4062C66.3594 32 66.4844 32.3906 66.6719 32.5781C67.0156 32.9219 67.4062 33.0938 67.8438 33.0938C68.2812 33.0625 68.7188 32.9375 69.1562 32.7188C69.625 32.4688 70.0781 32.1562 70.5156 31.7812C70.9844 31.4062 71.3906 31.0156 71.7344 30.6094C72.1094 30.2031 72.4062 29.8281 72.625 29.4844C72.875 29.1406 73.0156 28.8906 73.0469 28.7344ZM82.9375 35.25C84.3125 29.4688 85.4062 24.8281 86.2188 21.3281C87.0625 17.8281 87.7031 15.1562 88.1406 13.3125C88.6406 11.125 88.9844 9.60938 89.1719 8.76562C89.2656 8.17188 89.3438 7.59375 89.4062 7.03125C89.4688 6.53125 89.5 6.01563 89.5 5.48438C89.5 4.95312 89.4531 4.46875 89.3594 4.03125C89.6094 3.875 89.875 3.75 90.1562 3.65625C90.4688 3.5625 90.7656 3.48438 91.0469 3.42188C91.3906 3.32812 91.7344 3.25 92.0781 3.1875C92.4219 3.125 92.7344 3.09375 93.0156 3.09375C93.2656 3.09375 93.5 3.125 93.7188 3.1875C93.9375 3.21875 94.0781 3.3125 94.1406 3.46875C94.3281 3.625 94.4062 3.9375 94.375 4.40625C94.375 4.875 94.3438 5.35938 94.2812 5.85938C94.1562 6.45312 94.0156 7.09375 93.8594 7.78125C93.4844 9.125 92.9688 11.0625 92.3125 13.5938C91.75 15.75 90.9844 18.6875 90.0156 22.4062C89.0781 26.125 87.8906 30.8125 86.4531 36.4688C86.2969 36.625 86.1094 36.7344 85.8906 36.7969C85.6719 36.8594 85.4688 36.8906 85.2812 36.8906C85.0625 36.8906 84.8281 36.875 84.5781 36.8438C84.3594 36.7812 84.1406 36.6875 83.9219 36.5625C83.7344 36.4375 83.5469 36.2656 83.3594 36.0469C83.1719 35.8594 83.0312 35.5938 82.9375 35.25ZM108.016 28.5469C107.703 29.7344 107.281 30.8438 106.75 31.875C106.219 32.9062 105.578 33.7969 104.828 34.5469C104.109 35.2969 103.281 35.875 102.344 36.2812C101.438 36.7188 100.438 36.9375 99.3438 36.9375C98.0625 36.9375 97.0469 36.6562 96.2969 36.0938C95.5781 35.5625 95.0312 34.8906 94.6562 34.0781C94.3125 33.2656 94.1094 32.375 94.0469 31.4062C93.9531 30.4375 93.9062 29.5312 93.9062 28.6875C93.9062 28.0938 93.9844 27.4375 94.1406 26.7188C94.2656 26 94.4531 25.2656 94.7031 24.5156C94.9531 23.7656 95.2656 23.0156 95.6406 22.2656C96.0469 21.5156 96.5156 20.8281 97.0469 20.2031C97.2344 19.6719 97.5156 19.2031 97.8906 18.7969C98.2969 18.3906 98.75 18.0625 99.25 17.8125C99.7812 17.5312 100.344 17.3281 100.938 17.2031C101.531 17.0469 102.109 16.9688 102.672 16.9688C102.766 16.9688 102.844 16.9844 102.906 17.0156C103 17.0469 103.094 17.0781 103.188 17.1094C103.594 17.1406 104.094 17.2969 104.688 17.5781C105.312 17.8594 105.906 18.2812 106.469 18.8438C107.062 19.4062 107.562 20.125 107.969 21C108.375 21.8438 108.578 22.875 108.578 24.0938C108.578 24.3438 108.562 24.6562 108.531 25.0312C108.5 25.375 108.469 25.6719 108.438 25.9219C109.156 25.6406 109.906 25.2969 110.688 24.8906C111.469 24.4844 112.219 24.0625 112.938 23.625C113.688 23.1562 114.375 22.6875 115 22.2188C115.625 21.75 116.125 21.3281 116.5 20.9531C116.812 20.6719 117.078 20.5156 117.297 20.4844C117.516 20.4531 117.672 20.5156 117.766 20.6719C117.859 20.8281 117.875 21.0469 117.812 21.3281C117.75 21.6094 117.578 21.9219 117.297 22.2656C117.141 22.4531 116.734 22.8281 116.078 23.3906C115.453 23.9531 114.703 24.5625 113.828 25.2188C112.953 25.875 112 26.5156 110.969 27.1406C109.938 27.7656 108.953 28.2344 108.016 28.5469ZM100.094 21.4219C100 21.7031 99.9531 22 99.9531 22.3125C99.9531 22.8125 99.9844 23.3438 100.047 23.9062C100.109 24.4375 100.266 24.9219 100.516 25.3594C100.766 25.7969 101.156 26.1719 101.688 26.4844C102.25 26.7656 103.016 26.9062 103.984 26.9062C104.141 26.9062 104.297 26.9062 104.453 26.9062C104.609 26.875 104.766 26.8438 104.922 26.8125C105.016 26.4062 105.094 26.0469 105.156 25.7344C105.25 25.3906 105.297 25.0938 105.297 24.8438C105.359 24.25 105.359 23.6406 105.297 23.0156C105.234 22.3906 105.109 21.8281 104.922 21.3281C104.766 20.7969 104.547 20.375 104.266 20.0625C104.016 19.7188 103.703 19.5469 103.328 19.5469C102.734 19.5469 102.156 19.7188 101.594 20.0625C101.062 20.375 100.562 20.8281 100.094 21.4219ZM97.0938 29.6719C97.0938 30.2344 97.125 30.7969 97.1875 31.3594C97.25 31.8906 97.375 32.375 97.5625 32.8125C97.75 33.2188 98 33.5625 98.3125 33.8438C98.625 34.0938 99.0312 34.2188 99.5312 34.2188C100.094 34.2188 100.609 34.0938 101.078 33.8438C101.547 33.5625 101.969 33.2188 102.344 32.8125C102.719 32.375 103.047 31.8906 103.328 31.3594C103.641 30.7969 103.906 30.2188 104.125 29.625C103.906 29.6562 103.688 29.6875 103.469 29.7188C103.281 29.7188 103.062 29.7188 102.812 29.7188C101.625 29.7188 100.594 29.375 99.7188 28.6875C98.875 27.9688 98.2188 27.0625 97.75 25.9688C97.5625 26.625 97.4062 27.2656 97.2812 27.8906C97.1562 28.5156 97.0938 29.1094 97.0938 29.6719ZM125.406 42.7031C125.25 43.4531 125.047 44.3906 124.797 45.5156C124.578 46.6406 124.312 47.8281 124 49.0781C123.719 50.3281 123.375 51.5625 122.969 52.7812C122.594 54.0312 122.172 55.1406 121.703 56.1094C121.234 57.1094 120.719 57.9219 120.156 58.5469C119.594 59.1719 118.969 59.4844 118.281 59.4844C117.25 59.4844 116.359 59.1719 115.609 58.5469C114.891 57.9531 114.281 57.1875 113.781 56.25C113.281 55.3438 112.922 54.3594 112.703 53.2969C112.453 52.2344 112.328 51.25 112.328 50.3438C112.328 49.0938 112.438 48.0469 112.656 47.2031C112.875 46.3906 113.25 45.6094 113.781 44.8594C114.344 44.1094 115.094 43.3125 116.031 42.4688C116.969 41.625 118.172 40.5781 119.641 39.3281C120.359 38.7031 121.047 38.1094 121.703 37.5469C122.359 36.9844 122.984 36.4688 123.578 36C123.734 35.375 123.875 34.7969 124 34.2656C124.156 33.7031 124.281 33.2031 124.375 32.7656C123.562 33.8594 122.578 34.7812 121.422 35.5312C120.297 36.2812 119 36.6562 117.531 36.6562C116.188 36.6562 115.094 36.0625 114.25 34.875C113.438 33.6562 113.031 31.875 113.031 29.5312C113.031 28.375 113.25 27.0469 113.688 25.5469C114.125 24.0469 114.75 22.6406 115.562 21.3281C116.375 20.0156 117.375 18.9062 118.562 18C119.75 17.0938 121.078 16.6406 122.547 16.6406C123.234 16.6406 123.828 16.8125 124.328 17.1562C124.828 17.5 125.25 17.9375 125.594 18.4688C125.938 18.9688 126.203 19.5156 126.391 20.1094C126.578 20.6719 126.719 21.2031 126.812 21.7031C126.875 21.5156 126.922 21.3281 126.953 21.1406C126.984 20.9219 127.031 20.7344 127.094 20.5781C127.406 19.5156 127.75 18.7969 128.125 18.4219C128.531 18.0156 129.125 17.8125 129.906 17.8125C130.344 17.8125 130.703 17.8906 130.984 18.0469C131.297 18.2031 131.453 18.3438 131.453 18.4688C131.297 18.8125 131.172 19.0781 131.078 19.2656C130.984 19.4531 130.891 19.6562 130.797 19.875C130.703 20.0625 130.609 20.3125 130.516 20.625C130.422 20.9375 130.297 21.3906 130.141 21.9844C130.078 22.2031 129.953 22.7188 129.766 23.5312C129.609 24.3125 129.391 25.25 129.109 26.3438C128.859 27.4375 128.578 28.6406 128.266 29.9531C127.984 31.2656 127.703 32.5469 127.422 33.7969C128.297 33.2969 129.203 32.6875 130.141 31.9688C131.078 31.25 131.969 30.5156 132.812 29.7656C133.656 29.0156 134.406 28.3125 135.062 27.6562C135.719 26.9688 136.203 26.4062 136.516 25.9688C136.766 25.5938 137.047 25.3281 137.359 25.1719C137.672 25.0156 137.938 24.9688 138.156 25.0312C138.406 25.0625 138.547 25.2031 138.578 25.4531C138.641 25.6719 138.547 25.9844 138.297 26.3906C137.578 27.5469 136.703 28.6719 135.672 29.7656C134.641 30.8281 133.578 31.8281 132.484 32.7656C131.422 33.6719 130.375 34.4844 129.344 35.2031C128.344 35.8906 127.484 36.4531 126.766 36.8906C126.453 38.2969 126.188 39.4375 125.969 40.3125C125.75 41.1875 125.562 41.9844 125.406 42.7031ZM119.5 33.4688C120.156 33.4688 120.766 33.2969 121.328 32.9531C121.922 32.6094 122.453 32.2188 122.922 31.7812C123.391 31.3125 123.781 30.8438 124.094 30.375C124.406 29.9062 124.641 29.5312 124.797 29.25C124.922 28.9688 125.062 28.5938 125.219 28.125C125.406 27.6562 125.547 27.2031 125.641 26.7656C125.734 26.3281 125.766 25.9375 125.734 25.5938C125.734 25.25 125.625 25.0625 125.406 25.0312C125.219 25 125.062 24.875 124.938 24.6562C124.844 24.4375 124.766 24.1875 124.703 23.9062C124.641 23.625 124.594 23.3438 124.562 23.0625C124.562 22.7812 124.547 22.5312 124.516 22.3125C124.359 21.2188 124.094 20.4219 123.719 19.9219C123.344 19.4219 122.922 19.1719 122.453 19.1719C121.672 19.1719 120.922 19.4844 120.203 20.1094C119.516 20.7344 118.891 21.5469 118.328 22.5469C117.797 23.5156 117.375 24.5938 117.062 25.7812C116.75 26.9375 116.594 28.0469 116.594 29.1094C116.594 30.4219 116.781 31.4844 117.156 32.2969C117.531 33.0781 118.312 33.4688 119.5 33.4688ZM117.344 55.2188C117.969 55.2188 118.469 54.75 118.844 53.8125C119.25 52.9062 119.672 51.6562 120.109 50.0625C120.203 49.6875 120.328 49.1406 120.484 48.4219C120.672 47.7344 120.875 46.9375 121.094 46.0312C121.344 45.125 121.594 44.1406 121.844 43.0781C122.094 42.0469 122.359 41 122.641 39.9375C122.391 40.1562 122.125 40.375 121.844 40.5938C121.594 40.8438 121.328 41.125 121.047 41.4375C120.359 42.0938 119.688 42.7188 119.031 43.3125C118.406 43.9375 117.844 44.5781 117.344 45.2344C116.844 45.9219 116.438 46.6562 116.125 47.4375C115.844 48.2188 115.703 49.125 115.703 50.1562C115.703 51.1875 115.734 52.0312 115.797 52.6875C115.891 53.3438 116 53.8594 116.125 54.2344C116.281 54.6094 116.453 54.8594 116.641 54.9844C116.859 55.1406 117.094 55.2188 117.344 55.2188Z" fill="black"/>
</svg>
